<?xml version="1.0" encoding="utf-8"?>
<!-- Generator: Adobe Illustrator 15.0.0, SVG Export Plug-In  -->
<!DOCTYPE svg PUBLIC "-//W3C//DTD SVG 1.1//EN" "http://www.w3.org/Graphics/SVG/1.1/DTD/svg11.dtd" [
	<!ENTITY ns_flows "http://ns.adobe.com/Flows/1.0/">
]>
<svg version="1.1"
	 xmlns="http://www.w3.org/2000/svg" xmlns:xlink="http://www.w3.org/1999/xlink" xmlns:a="http://ns.adobe.com/AdobeSVGViewerExtensions/3.0/"
	 x="0px" y="0px" width="245px" height="60px" viewBox="10.093 15.645 245 60"
	 overflow="visible" enable-background="new 10.093 15.645 245 60" xml:space="preserve">
<defs>
</defs>
<g>
	<defs>
		<rect id="SVGID_1_" width="259.527" height="93.816"/>
	</defs>
	<clipPath id="SVGID_2_">
		<use xlink:href="#SVGID_1_"  overflow="visible"/>
	</clipPath>
	<path clip-path="url(#SVGID_2_)" fill="#2EE8CF" d="M22.954,62.168c0,1.119-0.391,2.023-1.17,2.713
		c-0.782,0.691-1.799,1.037-3.049,1.037h-0.741c-3.022,0-4.532-1.25-4.532-3.75c0-1.355,0.47-2.344,1.408-2.971l0.897-0.545
		c0.104-0.105,0.156-0.184,0.156-0.234c0-0.209-0.082-0.314-0.242-0.314l-0.766-0.508c-0.968-0.625-1.454-1.627-1.454-3.006
		c0-1.408,0.458-2.422,1.372-3.049l0.928-0.508c0.108-0.078,0.162-0.182,0.162-0.312c-0.028-0.129-0.08-0.207-0.162-0.232
		l-1.25-0.939c-0.7-0.572-1.05-1.432-1.05-2.577c0-1.536,0.486-2.553,1.454-3.046c0.672-0.393,1.008-0.652,1.008-0.782
		c0-0.156-0.054-0.26-0.162-0.312l-0.928-0.664c-0.914-0.651-1.372-1.613-1.372-2.892c0-1.458,0.552-2.486,1.656-3.086
		c0.535-0.312,0.806-0.558,0.806-0.742c0-0.078-0.028-0.156-0.08-0.233l-1.09-0.702c-0.86-0.601-1.292-1.538-1.292-2.814
		c0-1.144,0.408-2.107,1.222-2.89c0.814-0.782,1.798-1.132,2.954-1.055l0.984,0.116c2.888,0.234,4.332,1.484,4.332,3.75
		c0,1.435-0.364,2.396-1.093,2.893l-1.134,0.702c-0.104,0.104-0.155,0.182-0.155,0.233c0.025,0.132,0.077,0.234,0.155,0.314
		l0.938,0.664c0.859,0.571,1.288,1.521,1.288,2.85c0,1.356-0.429,2.32-1.288,2.892l-0.938,0.664
		c-0.104,0.104-0.155,0.183-0.155,0.234c0,0.182,0.338,0.468,1.016,0.86c0.91,0.546,1.366,1.535,1.366,2.968
		c0,1.405-0.456,2.396-1.366,2.968l-0.86,0.549c-0.104,0.104-0.155,0.207-0.155,0.311c0.025,0.131,0.077,0.234,0.155,0.312
		l0.782,0.508c0.962,0.574,1.444,1.59,1.444,3.049c0,1.613-0.664,2.734-1.992,3.357c-0.26,0.156-0.39,0.289-0.39,0.393
		c0,0.156,0.182,0.338,0.548,0.545C22.342,59.59,22.954,60.682,22.954,62.168 M45.846,69.783c0,1.121-0.386,2.039-1.152,2.754
		c-0.77,0.719-1.777,1.074-3.027,1.074H24.79c-0.962,0-1.816-0.375-2.559-1.133c-0.741-0.756-1.111-1.627-1.111-2.617
		c0-1.039,0.376-1.914,1.132-2.615c0.754-0.705,1.718-1.057,2.89-1.057h16.643C44.492,66.189,45.846,67.387,45.846,69.783
		 M45.924,24.003c0,2.5-1.472,3.75-4.414,3.75H27.525c-2.397,0-3.894-0.157-4.491-0.47c-1.227-0.649-1.836-1.744-1.836-3.28
		c0-0.989,0.344-1.861,1.033-2.617c0.69-0.754,1.49-1.133,2.402-1.133h17.306c1.145,0,2.097,0.358,2.851,1.074
		C45.546,22.043,45.924,22.936,45.924,24.003 M53.58,46.972c0,1.405-0.462,2.396-1.389,2.968l-1.071,0.625
		c-0.053,0.027-0.08,0.105-0.08,0.234c0.027,0.131,0.082,0.248,0.166,0.354l0.939,0.545c0.956,0.574,1.435,1.512,1.435,2.814
		c0,1.484-0.506,2.512-1.517,3.084c-0.682,0.393-1.023,0.666-1.023,0.822c0,0.182,0.313,0.441,0.941,0.779
		c1.064,0.6,1.599,1.59,1.599,2.971c0,2.551-1.517,3.828-4.548,3.828c-3.349,0-5.022-1.25-5.022-3.75
		c0-1.484,0.532-2.527,1.602-3.127c0.521-0.285,0.78-0.52,0.78-0.701c-0.025-0.131-0.078-0.236-0.156-0.314l-0.938-0.664
		c-0.858-0.572-1.288-1.521-1.288-2.85c0-1.588,0.586-2.658,1.758-3.205l0.156-0.078c0.364-0.182,0.546-0.326,0.546-0.43
		c0-0.156-0.338-0.441-1.014-0.859c-0.964-0.572-1.446-1.588-1.446-3.046s0.532-2.5,1.602-3.124
		c0.572-0.338,0.858-0.574,0.858-0.704c-0.026-0.156-0.078-0.234-0.156-0.234l-0.779-0.586c-1.017-0.494-1.524-1.51-1.524-3.048
		c0-1.302,0.482-2.252,1.446-2.85l0.857-0.586c0.104-0.104,0.156-0.208,0.156-0.314c0-0.156-0.364-0.442-1.094-0.858
		c-0.912-0.548-1.366-1.485-1.366-2.813c0-2.603,1.502-3.906,4.51-3.906c1.568,0,2.603,0.156,3.101,0.47
		c1.306,0.807,1.96,1.9,1.96,3.28c0,1.484-0.542,2.526-1.626,3.126c-0.61,0.391-0.914,0.624-0.914,0.702
		c0,0.106,0.054,0.21,0.16,0.314l1.069,0.663c0.874,0.624,1.311,1.576,1.311,2.851c0,1.563-0.595,2.632-1.786,3.204
		c-0.502,0.26-0.754,0.456-0.754,0.586c0,0.182,0.132,0.338,0.397,0.468C52.866,44.315,53.58,45.436,53.58,46.972"/>
	<path clip-path="url(#SVGID_2_)" fill="#2EE8CF" d="M99.518,23.983c0,2.565-1.498,3.848-4.492,3.848H84.243
		c-1.224,0-1.836,0.13-1.836,0.393c0,0.052,0.026,0.104,0.08,0.155l0.958,0.938c0.558,0.546,0.838,1.38,0.838,2.502
		c0,1.59-0.647,2.684-1.945,3.284c-0.345,0.155-0.517,0.312-0.517,0.468c0,0.158,0.028,0.262,0.08,0.313l0.992,0.664
		c0.926,0.601,1.39,1.564,1.39,2.893c0,1.59-0.647,2.672-1.943,3.246c-0.398,0.233-0.597,0.43-0.597,0.586
		c0,0.158,0.198,0.313,0.597,0.47c1.296,0.574,1.943,1.694,1.943,3.362c0,1.459-0.702,2.58-2.102,3.361
		c-0.292,0.156-0.438,0.312-0.438,0.471c0,0.129,0.172,0.273,0.517,0.43c1.348,0.598,2.023,1.746,2.023,3.439
		c0,1.59-0.567,2.658-1.706,3.207c-0.556,0.234-0.834,0.416-0.834,0.547c0,0.184,0.218,0.365,0.654,0.547
		c1.256,0.625,1.886,1.721,1.886,3.283c0,1.383-0.474,2.373-1.424,2.971c-0.692,0.443-1.038,0.744-1.038,0.9
		c0,0.131,0.194,0.287,0.578,0.469c1.256,0.602,1.884,1.695,1.884,3.285c0,2.553-1.556,3.832-4.668,3.832
		c-1.386,0-2.406-0.184-3.058-0.549c-1.23-0.73-1.844-1.797-1.844-3.205c0-1.461,0.495-2.477,1.489-3.051l0.847-0.467
		c0.161-0.105,0.241-0.184,0.241-0.234c0-0.211-0.08-0.355-0.241-0.432l-0.927-0.549c-0.939-0.572-1.409-1.562-1.409-2.971
		c0-1.434,0.55-2.475,1.649-3.125c0.618-0.34,0.928-0.549,0.928-0.627c-0.027-0.129-0.08-0.236-0.161-0.312l-1.169-0.742
		c-0.831-0.496-1.247-1.422-1.247-2.777c0-1.408,0.47-2.396,1.409-2.971l0.927-0.547c0.134-0.078,0.214-0.195,0.241-0.352
		c0-0.104-0.403-0.418-1.212-0.939c-0.912-0.6-1.365-1.588-1.365-2.971c0-1.564,0.716-2.685,2.147-3.362
		c0.286-0.182,0.43-0.312,0.43-0.392c-0.025-0.156-0.105-0.26-0.233-0.312l-0.744-0.432c-1.068-0.572-1.6-1.603-1.6-3.088
		c0-1.433,0.508-2.45,1.521-3.048c0.652-0.391,0.979-0.664,0.979-0.822c0-0.156-0.055-0.234-0.156-0.234l-0.822-0.548
		c-1.014-0.728-1.521-1.72-1.521-2.97c0-1.252,0.479-2.269,1.443-3.05c0.314-0.183,0.47-0.364,0.47-0.546
		c0-0.263-0.533-0.393-1.602-0.393H63.424c-1.146,0-2.11-0.355-2.891-1.067c-0.782-0.715-1.172-1.614-1.172-2.702
		c0-1.114,0.396-2.028,1.192-2.74c0.794-0.712,1.815-1.068,3.065-1.068h31.406c1.094,0,1.926,0.154,2.5,0.466
		C98.854,21.472,99.518,22.56,99.518,23.983"/>
	<path clip-path="url(#SVGID_2_)" fill="#2EE8CF" d="M114.868,62.168c0,1.119-0.391,2.023-1.17,2.713
		c-0.782,0.691-1.798,1.037-3.048,1.037h-0.742c-3.022,0-4.532-1.25-4.532-3.75c0-1.355,0.47-2.344,1.408-2.971l0.897-0.545
		c0.103-0.105,0.156-0.184,0.156-0.234c0-0.209-0.082-0.314-0.242-0.314l-0.766-0.508c-0.968-0.625-1.454-1.627-1.454-3.006
		c0-1.408,0.458-2.422,1.372-3.049l0.928-0.508c0.108-0.078,0.162-0.182,0.162-0.312c-0.028-0.129-0.08-0.207-0.162-0.232
		l-1.25-0.939c-0.7-0.572-1.05-1.432-1.05-2.577c0-1.536,0.486-2.553,1.454-3.046c0.672-0.393,1.008-0.652,1.008-0.782
		c0-0.156-0.054-0.26-0.162-0.312l-0.928-0.664c-0.914-0.651-1.372-1.613-1.372-2.892c0-1.458,0.552-2.486,1.656-3.086
		c0.536-0.312,0.806-0.558,0.806-0.742c0-0.078-0.028-0.156-0.08-0.233l-1.09-0.702c-0.86-0.601-1.292-1.538-1.292-2.814
		c0-1.144,0.408-2.107,1.222-2.89c0.814-0.782,1.799-1.132,2.954-1.055l0.984,0.116c2.888,0.234,4.332,1.484,4.332,3.75
		c0,1.435-0.364,2.396-1.092,2.893l-1.135,0.702c-0.104,0.104-0.155,0.182-0.155,0.233c0.025,0.132,0.078,0.234,0.155,0.314
		l0.938,0.664c0.86,0.571,1.288,1.521,1.288,2.85c0,1.356-0.428,2.32-1.288,2.892l-0.938,0.664
		c-0.104,0.104-0.155,0.183-0.155,0.234c0,0.182,0.338,0.468,1.016,0.86c0.91,0.546,1.366,1.535,1.366,2.968
		c0,1.405-0.456,2.396-1.366,2.968l-0.86,0.549c-0.104,0.104-0.155,0.207-0.155,0.311c0.025,0.131,0.078,0.234,0.155,0.312
		l0.782,0.508c0.962,0.574,1.444,1.59,1.444,3.049c0,1.613-0.664,2.734-1.992,3.357c-0.26,0.156-0.39,0.289-0.39,0.393
		c0,0.156,0.182,0.338,0.548,0.545C114.256,59.59,114.868,60.682,114.868,62.168 M137.76,69.783c0,1.121-0.386,2.039-1.151,2.754
		c-0.771,0.719-1.778,1.074-3.028,1.074h-16.876c-0.962,0-1.816-0.375-2.558-1.133c-0.742-0.756-1.112-1.627-1.112-2.617
		c0-1.039,0.376-1.914,1.132-2.615c0.754-0.705,1.718-1.057,2.89-1.057h16.643C136.406,66.189,137.76,67.387,137.76,69.783
		 M137.838,24.003c0,2.5-1.472,3.75-4.414,3.75H119.44c-2.398,0-3.895-0.157-4.492-0.47c-1.227-0.649-1.836-1.744-1.836-3.28
		c0-0.989,0.344-1.861,1.034-2.617c0.689-0.754,1.489-1.133,2.401-1.133h17.306c1.145,0,2.097,0.358,2.851,1.074
		C137.46,22.043,137.838,22.936,137.838,24.003 M145.494,46.972c0,1.405-0.462,2.396-1.388,2.968l-1.072,0.625
		c-0.052,0.027-0.08,0.105-0.08,0.234c0.028,0.131,0.082,0.248,0.166,0.354l0.939,0.545c0.956,0.574,1.435,1.512,1.435,2.814
		c0,1.484-0.506,2.512-1.517,3.084c-0.682,0.393-1.023,0.666-1.023,0.822c0,0.182,0.313,0.441,0.942,0.779
		c1.063,0.6,1.598,1.59,1.598,2.971c0,2.551-1.517,3.828-4.548,3.828c-3.349,0-5.022-1.25-5.022-3.75
		c0-1.484,0.532-2.527,1.603-3.127c0.52-0.285,0.779-0.52,0.779-0.701c-0.025-0.131-0.078-0.236-0.155-0.314l-0.938-0.664
		c-0.858-0.572-1.288-1.521-1.288-2.85c0-1.588,0.586-2.658,1.758-3.205l0.156-0.078c0.364-0.182,0.546-0.326,0.546-0.43
		c0-0.156-0.338-0.441-1.014-0.859c-0.964-0.572-1.446-1.588-1.446-3.046s0.532-2.5,1.603-3.124
		c0.571-0.338,0.857-0.574,0.857-0.704c-0.025-0.156-0.078-0.234-0.156-0.234l-0.779-0.586c-1.017-0.494-1.524-1.51-1.524-3.048
		c0-1.302,0.482-2.252,1.446-2.85l0.857-0.586c0.104-0.104,0.156-0.208,0.156-0.314c0-0.156-0.364-0.442-1.094-0.858
		c-0.912-0.548-1.366-1.485-1.366-2.813c0-2.603,1.502-3.906,4.51-3.906c1.568,0,2.603,0.156,3.101,0.47
		c1.306,0.807,1.96,1.9,1.96,3.28c0,1.484-0.542,2.526-1.626,3.126c-0.61,0.391-0.914,0.624-0.914,0.702
		c0,0.106,0.054,0.21,0.16,0.314l1.069,0.663c0.874,0.624,1.311,1.576,1.311,2.851c0,1.563-0.594,2.632-1.786,3.204
		c-0.502,0.26-0.754,0.456-0.754,0.586c0,0.182,0.132,0.338,0.397,0.468C144.78,44.315,145.494,45.436,145.494,46.972"/>
	<path clip-path="url(#SVGID_2_)" fill="#2EE8CF" d="M196.74,56.111c0-0.098-0.051,0.568-0.148,1.998
		c-0.197,2.861-0.295,5.623-0.295,8.287c0,0.297,0.047,0.9,0.146,1.812c0.1,0.914,0.148,2.012,0.148,3.295v0.666
		c0,0.639-0.197,0.961-0.592,0.961c-0.396,0-0.74-0.369-1.035-1.109c-0.693-1.629-1.383-2.688-2.072-3.182
		c-3.553,3.107-7.82,4.662-12.803,4.662c-7.252,0-13.26-2.529-18.018-7.586c-4.763-5.055-7.143-11.434-7.143-19.129
		c0-7.744,2.185-14.072,6.548-18.979c4.366-4.908,10.003-7.364,16.91-7.364c2.517,0,4.524,0.21,6.03,0.628
		c1.504,0.42,3.367,1.271,5.588,2.554c1.084,0.643,1.898,0.962,2.441,0.962c0.445,0,0.863-0.394,1.258-1.184
		c0.641-1.38,1.158-2.072,1.555-2.072c0.395,0,0.592,0.198,0.592,0.592c0,0.198-0.049,0.519-0.148,0.962
		c-0.543,2.368-0.812,6.809-0.812,13.32c0,0.938-0.074,1.48-0.223,1.628c-0.148,0.148-0.346,0.223-0.592,0.223
		c-0.494,0-0.814-0.469-0.963-1.406c-0.641-3.946-1.553-6.882-2.736-8.807c-2.42-3.945-6.217-5.92-11.396-5.92
		c-3.996,0-7.154,1.332-9.473,3.996c-4.193,4.786-6.29,11.792-6.29,21.017c0,8.24,1.727,14.627,5.181,19.166
		c3.008,3.947,7.004,5.92,11.987,5.92c2.564,0,4.909-0.629,7.03-1.887c2.119-1.26,3.748-2.971,4.885-5.145
		c1.281-2.516,2.193-5.254,2.736-8.213c0.197-1.184,0.52-1.775,0.963-1.775C196.492,55.002,196.74,55.371,196.74,56.111"/>
	<path clip-path="url(#SVGID_2_)" fill="#2EE8CF" d="M252.168,47.231c0,7.353-2.209,13.567-6.623,18.647
		c-4.416,5.082-9.832,7.623-16.244,7.623c-6.807,0-12.531-2.578-17.168-7.732c-4.637-5.156-6.955-11.508-6.955-19.057
		c0-7.695,2.232-13.998,6.697-18.905c4.465-4.91,10.174-7.364,17.131-7.364c6.561,0,12.062,2.565,16.502,7.696
		C249.947,33.27,252.168,39.635,252.168,47.231 M243.879,47.604c0-9.055-1.85-16.106-5.549-21.152
		c-2.32-3.166-5.551-4.75-9.695-4.75c-3.947,0-7.006,1.212-9.176,3.636c-3.996,4.454-5.994,11.702-5.994,21.746
		c0,7.966,1.395,14.151,4.184,18.556c2.785,4.402,6.695,6.605,11.727,6.605c4.688,0,8.215-2.078,10.582-6.234
		C242.572,61.406,243.879,55.273,243.879,47.604"/>
	<path display="none" clip-path="url(#SVGID_2_)" d="M339.639,33.541c0,4.786-2.049,8.51-6.143,11.174
		c-2.566,1.678-5.822,2.517-9.768,2.517c-1.678,0-3.578-0.173-5.699-0.519V68.67c0,1.135,0.049,1.85,0.148,2.145
		c0.246,0.693,0.789,1.111,1.629,1.258c1.43,0.199,2.811,0.297,4.143,0.297c0.543,0,0.814,0.174,0.814,0.518
		c0,0.494-0.346,0.74-1.035,0.74h-0.74H307.67h-0.963c-1.479,0-2.219-0.246-2.219-0.74c0-0.346,0.518-0.52,1.555-0.52
		c2.316,0,3.648-0.223,3.994-0.666c0.395-0.197,0.617-0.691,0.666-1.482V25.553c0-1.529-0.42-2.47-1.258-2.815
		c-0.494-0.196-1.357-0.296-2.59-0.296h-0.74h-0.518c-0.74,0-1.109-0.198-1.109-0.597c0-0.439,0.689-0.662,2.072-0.662h16.279
		c5.625,0,9.742,0.988,12.357,2.96C338.158,26.363,339.639,29.497,339.639,33.541 M331.867,33.613
		c0-7.448-3.107-11.172-9.322-11.172c-2.072,0-3.432,0.348-4.07,1.044c-0.297,0.296-0.445,1.065-0.445,2.306v19.812
		c0.395,0.051,0.838,0.074,1.332,0.074c3.256,0,6.02-0.72,8.289-2.16C330.463,41.729,331.867,38.429,331.867,33.613"/>
</g>
</svg>
